<svg width="35" height="35" viewBox="0 0 35 35" fill="none" xmlns="http://www.w3.org/2000/svg">
<g clip-path="url(#clip0_924_409)">
<path d="M16.0415 24.7916H18.9582V23.3333H20.4165C21.2186 23.3333 21.8748 22.6771 21.8748 21.875V17.5C21.8748 16.6979 21.2186 16.0416 20.4165 16.0416H16.0415V14.5833H21.8748V11.6666H18.9582V10.2083H16.0415V11.6666H14.5832C13.7811 11.6666 13.1248 12.3229 13.1248 13.125V17.5C13.1248 18.3021 13.7811 18.9583 14.5832 18.9583H18.9582V20.4166H13.1248V23.3333H16.0415V24.7916ZM29.1665 5.83331H5.83317C4.21442 5.83331 2.93109 7.13123 2.93109 8.74998L2.9165 26.25C2.9165 27.8687 4.21442 29.1666 5.83317 29.1666H29.1665C30.7853 29.1666 32.0832 27.8687 32.0832 26.25V8.74998C32.0832 7.13123 30.7853 5.83331 29.1665 5.83331ZM29.1665 26.25H5.83317V8.74998H29.1665V26.25Z" fill="black"/>
</g>
<defs>
<clipPath id="clip0_924_409">
<rect width="35" height="35" fill="white"/>
</clipPath>
</defs>
</svg>
