<svg width="35" height="35" viewBox="0 0 35 35" fill="none" xmlns="http://www.w3.org/2000/svg">
<path d="M15.9263 7.24141H8.21116C7.97111 7.24147 7.74091 7.33686 7.57117 7.5066C7.40143 7.67633 7.30605 7.90653 7.30598 8.14658V15.9914C7.30605 16.2315 7.40143 16.4617 7.57117 16.6314C7.74091 16.8011 7.97111 16.8965 8.21116 16.8966H15.9263C16.1664 16.8965 16.3966 16.8011 16.5663 16.6314C16.7361 16.4617 16.8314 16.2315 16.8315 15.9914V8.14658C16.8314 7.90653 16.7361 7.67633 16.5663 7.5066C16.3966 7.33686 16.1664 7.24147 15.9263 7.24141ZM15.0212 15.0862H9.11633V9.05175H15.0212V15.0862ZM13.2756 10.8621H10.8618V13.2759H13.2756V10.8621ZM3.62047 14.4828C3.77897 14.4828 3.93593 14.4516 4.08238 14.391C4.22882 14.3304 4.36189 14.2415 4.47397 14.1294C4.58605 14.0173 4.67494 13.8842 4.73558 13.7378C4.79622 13.5914 4.82741 13.4344 4.82737 13.2759V6.03451C4.82769 5.71452 4.95494 5.40772 5.18121 5.18146C5.40748 4.95519 5.71427 4.82793 6.03426 4.82761H13.2756C13.5957 4.82761 13.9027 4.70046 14.129 4.47412C14.3554 4.24778 14.4825 3.9408 14.4825 3.62072C14.4825 3.30063 14.3554 2.99365 14.129 2.76731C13.9027 2.54097 13.5957 2.41382 13.2756 2.41382H6.03426C5.07432 2.41487 4.15399 2.79667 3.47521 3.47545C2.79642 4.15424 2.41462 5.07456 2.41357 6.03451V13.2759C2.41353 13.4344 2.44472 13.5914 2.50536 13.7378C2.566 13.8842 2.6549 14.0173 2.76697 14.1294C2.87905 14.2415 3.01212 14.3304 3.15856 14.391C3.30501 14.4516 3.46197 14.4828 3.62047 14.4828ZM15.9263 18.1035H8.21116C7.97111 18.1035 7.74091 18.1989 7.57117 18.3687C7.40143 18.5384 7.30605 18.7686 7.30598 19.0086V26.8535C7.30605 27.0935 7.40143 27.3237 7.57117 27.4935C7.74091 27.6632 7.97111 27.7586 8.21116 27.7587H15.9263C16.1664 27.7586 16.3966 27.6632 16.5663 27.4935C16.7361 27.3237 16.8314 27.0935 16.8315 26.8535V19.0086C16.8314 18.7686 16.7361 18.5384 16.5663 18.3687C16.3966 18.1989 16.1664 18.1035 15.9263 18.1035ZM15.0212 25.9483H9.11633V19.9138H15.0212V25.9483ZM13.2756 21.7242H10.8618V24.138H13.2756V21.7242ZM13.2756 30.1724H6.03426C5.71427 30.1721 5.40748 30.0449 5.18121 29.8186C4.95494 29.5923 4.82769 29.2855 4.82737 28.9655V21.7242C4.82737 21.4041 4.70021 21.0971 4.47388 20.8708C4.24754 20.6444 3.94056 20.5173 3.62047 20.5173C3.30038 20.5173 2.9934 20.6444 2.76707 20.8708C2.54073 21.0971 2.41357 21.4041 2.41357 21.7242V28.9655C2.41462 29.9255 2.79642 30.8458 3.47521 31.5246C4.15399 32.2034 5.07432 32.5852 6.03426 32.5862H13.2756C13.5957 32.5862 13.9027 32.4591 14.129 32.2327C14.3554 32.0064 14.4825 31.6994 14.4825 31.3793C14.4825 31.0593 14.3554 30.7523 14.129 30.5259C13.9027 30.2996 13.5957 30.1724 13.2756 30.1724ZM31.3791 20.5173C31.2206 20.5172 31.0636 20.5484 30.9172 20.6091C30.7707 20.6697 30.6377 20.7586 30.5256 20.8707C30.4135 20.9827 30.3246 21.1158 30.264 21.2623C30.2033 21.4087 30.1722 21.5657 30.1722 21.7242V28.9655C30.1719 29.2855 30.0446 29.5923 29.8183 29.8186C29.5921 30.0449 29.2853 30.1721 28.9653 30.1724H21.7239C21.4038 30.1724 21.0968 30.2996 20.8705 30.5259C20.6442 30.7523 20.517 31.0593 20.517 31.3793C20.517 31.6994 20.6442 32.0064 20.8705 32.2327C21.0968 32.4591 21.4038 32.5862 21.7239 32.5862H28.9653C29.9252 32.5852 30.8456 32.2034 31.5244 31.5246C32.2031 30.8458 32.5849 29.9255 32.586 28.9655V21.7242C32.586 21.5657 32.5548 21.4087 32.4942 21.2623C32.4336 21.1158 32.3447 20.9827 32.2326 20.8707C32.1205 20.7586 31.9874 20.6697 31.841 20.6091C31.6946 20.5484 31.5376 20.5172 31.3791 20.5173ZM21.1205 24.7414H18.7067V27.1552H21.1205V24.7414ZM18.7067 21.114H21.1205V18.7002H18.7067V21.114ZM28.9653 2.41382H21.7239C21.4038 2.41382 21.0968 2.54097 20.8705 2.76731C20.6442 2.99365 20.517 3.30063 20.517 3.62072C20.517 3.9408 20.6442 4.24778 20.8705 4.47412C21.0968 4.70046 21.4038 4.82761 21.7239 4.82761H28.9653C29.2853 4.82793 29.5921 4.95519 29.8183 5.18146C30.0446 5.40772 30.1719 5.71452 30.1722 6.03451V13.2759C30.1722 13.596 30.2993 13.903 30.5257 14.1293C30.752 14.3556 31.059 14.4828 31.3791 14.4828C31.6992 14.4828 32.0062 14.3556 32.2325 14.1293C32.4588 13.903 32.586 13.596 32.586 13.2759V6.03451C32.5849 5.07456 32.2031 4.15424 31.5244 3.47545C30.8456 2.79667 29.9252 2.41487 28.9653 2.41382ZM21.7239 13.2759H24.1377V10.8621H21.7239V13.2759ZM24.1377 24.138V21.7242H21.7239V24.138H24.1377ZM26.7884 16.8966C27.0285 16.8965 27.2586 16.8011 27.4284 16.6314C27.5981 16.4617 27.6935 16.2315 27.6936 15.9914V8.14658C27.6935 7.90653 27.5981 7.67633 27.4284 7.5066C27.2586 7.33686 27.0285 7.24147 26.7884 7.24141H19.0732C18.8332 7.24147 18.603 7.33686 18.4332 7.5066C18.2635 7.67633 18.1681 7.90653 18.1681 8.14658V15.9914C18.1681 16.2315 18.2635 16.4617 18.4332 16.6314C18.603 16.8011 18.8332 16.8965 19.0732 16.8966H26.7884ZM19.9784 9.05175H25.8832V15.0862H19.9784V9.05175ZM27.155 18.7002H24.7412V21.114H27.155V18.7002ZM24.7412 27.1552H27.155V24.7414H24.7412V27.1552Z" fill="black"/>
</svg>
