<svg width="35" height="35" viewBox="0 0 35 35" fill="none" xmlns="http://www.w3.org/2000/svg">
<g clip-path="url(#clip0_626_502)">
<path d="M24.7917 7.29169C26.0021 7.29169 26.9792 6.3146 26.9792 5.10419C26.9792 3.64585 24.7917 1.16669 24.7917 1.16669C24.7917 1.16669 22.6042 3.64585 22.6042 5.10419C22.6042 6.3146 23.5813 7.29169 24.7917 7.29169ZM17.5 7.29169C18.7104 7.29169 19.6875 6.3146 19.6875 5.10419C19.6875 3.64585 17.5 1.16669 17.5 1.16669C17.5 1.16669 15.3125 3.64585 15.3125 5.10419C15.3125 6.3146 16.2896 7.29169 17.5 7.29169ZM10.2083 7.29169C11.4188 7.29169 12.3958 6.3146 12.3958 5.10419C12.3958 3.64585 10.2083 1.16669 10.2083 1.16669C10.2083 1.16669 8.02083 3.64585 8.02083 5.10419C8.02083 6.3146 8.99792 7.29169 10.2083 7.29169ZM27.5917 11.6813C27.3 10.8209 26.4833 10.2084 25.5208 10.2084H9.47917C8.51667 10.2084 7.71458 10.8209 7.40833 11.6813L4.375 20.4167V32.0834C4.375 32.8854 5.03125 33.5417 5.83333 33.5417H7.29167C8.09375 33.5417 8.75 32.8854 8.75 32.0834V30.625H26.25V32.0834C26.25 32.8854 26.9062 33.5417 27.7083 33.5417H29.1667C29.9688 33.5417 30.625 32.8854 30.625 32.0834V20.4167L27.5917 11.6813ZM9.98958 13.125H24.9958L26.5125 17.5H8.47292L9.98958 13.125ZM27.7083 27.7084H7.29167V20.9125L7.46667 20.4167H27.5479L27.7083 20.9125V27.7084Z" fill="#323232"/>
<path d="M10.9375 26.25C12.1456 26.25 13.125 25.2706 13.125 24.0625C13.125 22.8544 12.1456 21.875 10.9375 21.875C9.72938 21.875 8.75 22.8544 8.75 24.0625C8.75 25.2706 9.72938 26.25 10.9375 26.25Z" fill="#323232"/>
<path d="M24.0625 26.25C25.2706 26.25 26.25 25.2706 26.25 24.0625C26.25 22.8544 25.2706 21.875 24.0625 21.875C22.8544 21.875 21.875 22.8544 21.875 24.0625C21.875 25.2706 22.8544 26.25 24.0625 26.25Z" fill="#323232"/>
</g>
<defs>
<clipPath id="clip0_626_502">
<rect width="35" height="35" fill="white"/>
</clipPath>
</defs>
</svg>
