<svg width="35" height="35" viewBox="0 0 35 35" fill="none" xmlns="http://www.w3.org/2000/svg">
<g clip-path="url(#clip0_987_518)">
<path d="M27.7083 7.29167V27.7083H7.29167V7.29167H27.7083ZM27.7083 4.375H7.29167C5.67292 4.375 4.375 5.6875 4.375 7.29167V27.7083C4.375 29.3125 5.67292 30.625 7.29167 30.625H27.7083C29.3125 30.625 30.625 29.3125 30.625 27.7083V7.29167C30.625 5.6875 29.3125 4.375 27.7083 4.375ZM17.5 17.5C15.0938 17.5 13.125 15.5313 13.125 13.125C13.125 10.7188 15.0938 8.75 17.5 8.75C19.9063 8.75 21.875 10.7188 21.875 13.125C21.875 15.5313 19.9063 17.5 17.5 17.5ZM17.5 11.6667C16.6979 11.6667 16.0417 12.3229 16.0417 13.125C16.0417 13.9271 16.6979 14.5833 17.5 14.5833C18.3021 14.5833 18.9583 13.9271 18.9583 13.125C18.9583 12.3229 18.3021 11.6667 17.5 11.6667ZM26.25 26.25H8.75V24.0187C8.75 20.3729 14.5396 18.7979 17.5 18.7979C20.4604 18.7979 26.25 20.3729 26.25 24.0187V26.25ZM12.1188 23.3333H22.8812C21.875 22.5167 19.4104 21.7 17.5 21.7C15.5896 21.7 13.1104 22.5167 12.1188 23.3333V23.3333Z" fill="#323232"/>
</g>
<defs>
<clipPath id="clip0_987_518">
<rect width="35" height="35" fill="white"/>
</clipPath>
</defs>
</svg>
