<svg width="35" height="35" viewBox="0 0 35 35" fill="none" xmlns="http://www.w3.org/2000/svg">
<g clip-path="url(#clip0_998_521)">
<path d="M30.625 10.6167V7.29167C30.625 5.6875 29.3125 4.375 27.7083 4.375H7.29167C5.67292 4.375 4.375 5.6875 4.375 7.29167V27.7083C4.375 29.3125 5.67292 30.625 7.29167 30.625H27.7083C29.3125 30.625 30.625 29.3125 30.625 27.7083V24.3833C31.4854 23.8729 32.0833 22.9542 32.0833 21.875V13.125C32.0833 12.0458 31.4854 11.1271 30.625 10.6167ZM29.1667 13.125V21.875H18.9583V13.125H29.1667ZM7.29167 27.7083V7.29167H27.7083V10.2083H18.9583C17.3542 10.2083 16.0417 11.5208 16.0417 13.125V21.875C16.0417 23.4792 17.3542 24.7917 18.9583 24.7917H27.7083V27.7083H7.29167Z" fill="#323232"/>
<path d="M23.3335 19.6875C24.5416 19.6875 25.521 18.7081 25.521 17.5C25.521 16.2919 24.5416 15.3125 23.3335 15.3125C22.1254 15.3125 21.146 16.2919 21.146 17.5C21.146 18.7081 22.1254 19.6875 23.3335 19.6875Z" fill="#323232"/>
</g>
<defs>
<clipPath id="clip0_998_521">
<rect width="35" height="35" fill="white"/>
</clipPath>
</defs>
</svg>
